<?xml version="1.0" encoding="utf-8"?>
<svg version="1.1" xmlns="http://www.w3.org/2000/svg" xmlns:xlink="http://www.w3.org/1999/xlink">
<style type="text/css">
	.lpc_logo_st0{fill:#A1D6DA;}
	.lpc_logo_st1{fill:#084A6B;}
	.lpc_logo_st2{fill:#125272;}
	.lpc_logo_st3{fill:#155572;}
	.lpc_logo_st4{fill:#135475;}
</style>
<g id="lpc_logo">
	<path id="lpc_logo_path0" class="lpc_logo_st0" d="M494.9,400.5c-0.7,0.4-0.8,1.4-0.8,9v8.5h-7.6c-8.5,0-8.3-0.1-10.2,4.2c-1.5,3.3-1.1,3.4,9,3.4h8.7
		v8.3c0,9.6,0,9.6,3.7,7.1c3.6-2.5,3.9-3.2,3.9-9.8l0-5.6h7.6c8.9,0,9.1-0.1,9.1-4c0-3.6,0-3.6-8.9-3.6h-7.7v-8
		c0-9.5-0.2-10.1-3.7-10.1C496.7,400.1,495.3,400.3,494.9,400.5"/>
	<path id="lpc_logo_path1" class="lpc_logo_st1" d="M584.5,331.2c1.6,1.6,2.9,2.9,3.1,2.9c0.1,0-1-1.3-2.6-2.9c-1.6-1.6-2.9-2.8-3.1-2.8
		C581.8,328.3,583,329.6,584.5,331.2 M461.5,331.3l-2.4,2.5l2.5-2.4c1.4-1.3,2.5-2.4,2.5-2.5C464.1,328.6,463.7,329,461.5,331.3
		 M544.6,331.2c1.3,1.3,2.4,2.4,2.6,2.4s-0.8-1.1-2.1-2.4c-1.3-1.3-2.4-2.4-2.6-2.4S543.4,329.8,544.6,331.2 M461.7,377.9
		c1.4,1.4,2.7,2.6,2.8,2.6c0.1,0-0.9-1.2-2.3-2.6c-1.4-1.4-2.7-2.6-2.8-2.6C459.3,375.3,460.3,376.5,461.7,377.9 M530.1,393.7
		l-2.6,2.7l2.7-2.6c2.5-2.4,3-2.9,2.6-2.9C532.8,391,531.6,392.2,530.1,393.7 M565.5,394.5l-2.8,3l3-2.8c2.8-2.6,3.2-3.1,2.8-3.1
		C568.4,391.5,567.1,392.8,565.5,394.5"/>
	<path id="lpc_logo_path2" class="lpc_logo_st2" d="M540.8,335.2c0,3.4,0.1,4.7,0.2,2.9c0.1-1.8,0.1-4.6,0-6.2C540.9,330.3,540.8,331.8,540.8,335.2
		 M426.3,354.7c0,10.5,0.1,14.7,0.1,9.3c0.1-5.3,0.1-13.9,0-19C426.4,339.9,426.3,344.2,426.3,354.7 M501.4,363.7
		c0,15.4,0.1,21.7,0.1,13.9c0.1-7.8,0.1-20.4,0-28C501.5,341.9,501.4,348.3,501.4,363.7 M559.8,354.7c0,10.2,0.1,14.3,0.1,9.1
		c0.1-5.2,0.1-13.5,0-18.5C559.9,340.2,559.8,344.5,559.8,354.7 M588.3,342.1c0,3.3,0.1,4.6,0.2,3c0.1-1.6,0.1-4.3,0-5.9
		C588.4,337.5,588.3,338.8,588.3,342.1 M548.4,358.5c0,12,0.1,16.9,0.1,10.8c0.1-6.1,0.1-15.9,0-21.9
		C548.5,341.5,548.4,346.4,548.4,358.5 M478.8,356.2c2.7,0.1,7,0.1,9.5,0c2.5-0.1,0.3-0.2-4.9-0.2
		C478.1,356.1,476.1,356.1,478.8,356.2 M574.2,356.7c3.2,0.1,8.3,0.1,11.4,0c3.1-0.1,0.4-0.2-5.8-0.2
		C573.5,356.5,571,356.6,574.2,356.7 M596.8,366.3c0,2.7,0.1,3.9,0.2,2.5c0.1-1.4,0.1-3.6,0-5C596.9,362.4,596.8,363.6,596.8,366.3
		 M430.3,382.3c5.3,0.1,13.9,0.1,19.2,0c5.3-0.1,1-0.1-9.6-0.1S425,382.3,430.3,382.3 M522,382.3c4.5,0.1,11.9,0.1,16.4,0
		c4.5-0.1,0.8-0.1-8.2-0.1C521.1,382.2,517.4,382.3,522,382.3 M566.6,382.3c6.6,0.1,17.4,0.1,24,0c6.6-0.1,1.2-0.1-12-0.1
		C565.4,382.2,560,382.3,566.6,382.3 M543.3,390.4c4.5,0.1,11.9,0.1,16.4,0c4.5-0.1,0.8-0.1-8.2-0.1
		C542.5,390.3,538.8,390.3,543.3,390.4 M580.6,390.4c2.8,0.1,7.5,0.1,10.5,0c3-0.1,0.7-0.2-5.1-0.2
		C580.2,390.3,577.8,390.3,580.6,390.4 M527,420.2c0,12,0.1,16.9,0.1,10.8c0.1-6.1,0.1-15.9,0-21.9C527.1,403.2,527,408.2,527,420.2
		 M596.9,418.6c0,8.8,0.1,12.3,0.1,8c0.1-4.4,0.1-11.5,0-15.9C596.9,406.2,596.9,409.8,596.9,418.6 M574.1,423.1
		c0,5,0.1,6.9,0.2,4.4c0.1-2.6,0.1-6.6,0-9C574.1,416,574.1,418.1,574.1,423.1"/>
	<path id="lpc_logo_path3" class="lpc_logo_st3" d="M497.8,330.8c2,2.1,2.4,2.5,2.4,2.1c0-0.1-1-1.1-2.3-2.3l-2.3-2.1L497.8,330.8 M509,331.2
		c1.3,1.3,2.4,2.4,2.6,2.4c0.1,0-0.8-1.1-2.1-2.4c-1.3-1.3-2.4-2.4-2.6-2.4C506.8,328.8,507.7,329.8,509,331.2 M559.6,439.8
		l-2.6,2.7l2.7-2.6c2.5-2.4,2.9-2.9,2.6-2.9C562.2,437.1,561,438.3,559.6,439.8"/>
	<path id="lpc_logo_path4" class="lpc_logo_st4" d="M466.4,327.7c-0.8,0.1-2.5,1.5-4.6,3.7l-3.4,3.5v19.6V374l2.9,3c5,5.2,4.7,6.2,4.7-16.8
		c0-21.6-0.2-20.3,2.8-23.5l1.2-1.3h9.7h9.7l2.1,2.1l2.1,2.1v4c0,5.1,0.1,5-8.2,5c-6.9,0-7.6,0.2-10,3.2c-0.5,0.6-1.2,1.4-1.5,1.8
		c-2,2-1.2,2.2,9,2.2c7.5,0,9.8,0.1,10.2,0.6c0.4,0.4,0.5,6.2,0.6,18.3c0,20.1-0.3,18.6,4.2,18.6c3.7,0,3.4,1.9,3.4-30.2l0-28.9
		l-2.7-2.9c-1.5-1.6-3.4-3.2-4.2-3.5C492.9,327.4,469.7,327.2,466.4,327.7 M553,354.1c0,20.2,0.1,26.9,0.6,27.3
		c1,1,50.5,0.8,50.9-0.2c0.2-0.4,0.3-6.2,0.3-12.9l0-12.1l-2.9-3c-3.7-3.9-4.9-4.4-9.1-4.4c-4.6,0-4.5,0.1-4.5-7.6v-6.4l-3.2-3.2
		c-4.3-4.3-3.9-4.2-18.9-4.2h-13V354.1 M419.3,328.6c-0.6,0.6-0.4,52.2,0.3,52.8c0.8,0.8,40.1,0.8,40.6,0c0.5-0.8-5.5-6.4-7.3-6.8
		c-0.9-0.2-7-0.3-13.6-0.3c-8.7,0-12.1-0.2-12.5-0.6c-0.4-0.4-0.6-5.4-0.6-19.5c0-21,0.2-19.7-3.5-23.5
		C420.2,328.3,419.9,328.1,419.3,328.6 M540.9,337.9c-0.2,5.3-0.3,15.5-0.3,22.8l0,13.2l-1.1,0.3c-0.6,0.1-6,0.2-11.9,0.1l-10.8-0.1
		l-1.8-2.1l-1.8-2.1l0-16.5c0-19,0-18.5-3.6-22c-4.3-4.2-4-5.8-4,20.6v23.4l3.2,3.2l3.2,3.2l18-0.1l18-0.1v-23.6v-23.6l-2.6-2.7
		C541,327.4,541.3,327,540.9,337.9 M576.7,336c3.2,1.9,3.7,2.9,3.8,7.2c0.1,5.4,0.1,5.5-3.5,5.5c-3,0-6,0.7-6,1.4
		c0,0.2-0.8,1.4-1.9,2.6c-3,3.6-2.9,3.6,10,3.6c16.9-0.1,18.4,0.9,17.9,12c-0.2,3.7-0.4,5.4-0.9,5.6c-1.3,0.8-34.9,0.5-35.8-0.3
		c-1.1-1.1-1.1-36.8,0-38C561.6,334.4,574.5,334.7,576.7,336 M573.9,391c-1.8,1-7.4,6.9-7.8,8.2c-0.2,0.6-0.3,8.9-0.4,18.5l0,17.5
		l3.8,3.9l3.8,3.9l15.2,0.1c14.9,0.1,15.2,0.1,15.7-0.8c0.4-0.7,0.5-7.7,0.4-23.3l-0.1-22.4l-3.2-3l-3.2-3l-11.4-0.1
		C577.2,390.3,575,390.4,573.9,391 M530.5,393.8l-3.2,3.2v22.9c0,20.4,0.1,22.9,0.8,23.1c0.4,0.2,6.9,0.3,14.3,0.3h13.6l3.3-3.3
		c4.6-4.5,4.9-4.3-10.3-4.3c-10.5,0-13.1-0.1-13.5-0.7c-0.4-0.5-0.5-5.1-0.4-16.8l0.1-16.2l1.2-1.3c2.3-2.5,2.9-2.6,14.5-2.6h10.7
		l3.3-3.1c5-4.7,6-4.5-13.9-4.5h-17.2L530.5,393.8 M594.1,399.4c2.9,2.2,2.9,2.3,3,19.1c0,9.7-0.1,15.7-0.5,16.3
		c-0.5,0.9-1.1,0.9-11.1,0.9c-12.9,0-11.7,1.1-11.6-10.5c0.1-27,0.1-27,12.4-26.8C592.1,398.4,592.9,398.5,594.1,399.4"/>
</g>
</svg>
